<svg width="161" height="49" viewBox="0 0 161 49" fill="none" xmlns="http://www.w3.org/2000/svg">
<path d="M73.356 31.684V40H72.192V32.68H68.196V40H67.032V31.684H73.356ZM88.8266 35.836C88.8266 35.124 88.9306 34.496 89.1386 33.952C89.3546 33.408 89.6426 32.956 90.0026 32.596C90.3706 32.228 90.7946 31.952 91.2746 31.768C91.7626 31.584 92.2786 31.492 92.8226 31.492C93.3586 31.492 93.8626 31.584 94.3346 31.768C94.8146 31.952 95.2346 32.228 95.5946 32.596C95.9546 32.956 96.2386 33.408 96.4466 33.952C96.6626 34.496 96.7706 35.124 96.7706 35.836C96.7706 36.548 96.6626 37.176 96.4466 37.72C96.2386 38.264 95.9546 38.72 95.5946 39.088C95.2346 39.448 94.8146 39.72 94.3346 39.904C93.8626 40.088 93.3586 40.18 92.8226 40.18C92.2786 40.18 91.7626 40.088 91.2746 39.904C90.7946 39.72 90.3706 39.448 90.0026 39.088C89.6426 38.72 89.3546 38.264 89.1386 37.72C88.9306 37.176 88.8266 36.548 88.8266 35.836ZM90.0506 35.836C90.0506 36.34 90.1146 36.8 90.2426 37.216C90.3706 37.624 90.5506 37.972 90.7826 38.26C91.0226 38.548 91.3106 38.772 91.6466 38.932C91.9906 39.084 92.3746 39.16 92.7986 39.16C93.2226 39.16 93.6026 39.084 93.9386 38.932C94.2746 38.772 94.5586 38.548 94.7906 38.26C95.0306 37.972 95.2146 37.624 95.3426 37.216C95.4706 36.8 95.5346 36.34 95.5346 35.836C95.5346 35.332 95.4706 34.876 95.3426 34.468C95.2146 34.052 95.0306 33.7 94.7906 33.412C94.5586 33.124 94.2746 32.904 93.9386 32.752C93.6026 32.592 93.2226 32.512 92.7986 32.512C92.3746 32.512 91.9906 32.592 91.6466 32.752C91.3106 32.904 91.0226 33.124 90.7826 33.412C90.5506 33.7 90.3706 34.052 90.2426 34.468C90.1146 34.876 90.0506 35.332 90.0506 35.836ZM113.058 34.084C113.058 34.42 113.086 34.716 113.142 34.972C113.206 35.22 113.31 35.428 113.454 35.596C113.606 35.756 113.806 35.876 114.054 35.956C114.31 36.036 114.63 36.076 115.014 36.076C115.166 36.076 115.318 36.072 115.47 36.064C115.63 36.048 115.782 36.032 115.926 36.016C116.07 36 116.198 35.98 116.31 35.956C116.422 35.932 116.514 35.912 116.586 35.896V31.684H117.75V40H116.586V36.904C116.434 36.944 116.198 36.984 115.878 37.024C115.566 37.064 115.23 37.084 114.87 37.084C114.262 37.084 113.766 37.016 113.382 36.88C112.998 36.736 112.694 36.536 112.47 36.28C112.254 36.016 112.106 35.7 112.026 35.332C111.946 34.956 111.906 34.54 111.906 34.084V31.684H113.058V34.084ZM139.109 31.684V32.692H136.493V40H135.329V32.692H132.713V31.684H139.109ZM158.86 40C158.724 39.64 158.596 39.288 158.476 38.944C158.356 38.592 158.232 38.236 158.104 37.876H154.336L153.58 40H152.368C152.688 39.12 152.988 38.308 153.268 37.564C153.548 36.812 153.82 36.1 154.084 35.428C154.356 34.756 154.624 34.116 154.888 33.508C155.152 32.892 155.428 32.284 155.716 31.684H156.784C157.072 32.284 157.348 32.892 157.612 33.508C157.876 34.116 158.14 34.756 158.404 35.428C158.676 36.1 158.952 36.812 159.232 37.564C159.512 38.308 159.812 39.12 160.132 40H158.86ZM157.768 36.916C157.512 36.22 157.256 35.548 157 34.9C156.752 34.244 156.492 33.616 156.22 33.016C155.94 33.616 155.672 34.244 155.416 34.9C155.168 35.548 154.92 36.22 154.672 36.916H157.768Z" fill="white"/>
<path d="M87.96 9.14H91.08V23H87.96V17.12H82.72V23H79.6V9.14H82.72V14.44H87.96V9.14ZM96.9075 16.06C96.9075 16.74 96.9875 17.3533 97.1475 17.9C97.3208 18.4467 97.5608 18.92 97.8675 19.32C98.1875 19.7067 98.5742 20.0067 99.0275 20.22C99.4808 20.4333 100.001 20.54 100.588 20.54C101.161 20.54 101.674 20.4333 102.128 20.22C102.594 20.0067 102.981 19.7067 103.288 19.32C103.608 18.92 103.848 18.4467 104.008 17.9C104.181 17.3533 104.268 16.74 104.268 16.06C104.268 15.38 104.181 14.7667 104.008 14.22C103.848 13.66 103.608 13.1867 103.288 12.8C102.981 12.4 102.594 12.0933 102.128 11.88C101.674 11.6667 101.161 11.56 100.588 11.56C100.001 11.56 99.4808 11.6733 99.0275 11.9C98.5742 12.1133 98.1875 12.42 97.8675 12.82C97.5608 13.2067 97.3208 13.68 97.1475 14.24C96.9875 14.7867 96.9075 15.3933 96.9075 16.06ZM107.488 16.06C107.488 17.2467 107.308 18.2933 106.948 19.2C106.601 20.0933 106.121 20.8467 105.508 21.46C104.894 22.06 104.161 22.5133 103.308 22.82C102.468 23.1267 101.561 23.28 100.588 23.28C99.6408 23.28 98.7475 23.1267 97.9075 22.82C97.0675 22.5133 96.3342 22.06 95.7075 21.46C95.0808 20.8467 94.5875 20.0933 94.2275 19.2C93.8675 18.2933 93.6875 17.2467 93.6875 16.06C93.6875 14.8733 93.8742 13.8333 94.2475 12.94C94.6208 12.0333 95.1208 11.2733 95.7475 10.66C96.3875 10.0467 97.1208 9.58667 97.9475 9.28C98.7875 8.97333 99.6675 8.82 100.588 8.82C101.534 8.82 102.428 8.97333 103.268 9.28C104.108 9.58667 104.841 10.0467 105.468 10.66C106.094 11.2733 106.588 12.0333 106.948 12.94C107.308 13.8333 107.488 14.8733 107.488 16.06ZM114.708 23.18C113.948 23.18 113.188 23.1533 112.428 23.1C111.682 23.06 110.902 22.9533 110.088 22.78V9.34C110.728 9.22 111.428 9.13333 112.188 9.08C112.948 9.01333 113.655 8.98 114.308 8.98C115.188 8.98 115.995 9.04667 116.728 9.18C117.475 9.3 118.115 9.51333 118.648 9.82C119.182 10.1267 119.595 10.5333 119.888 11.04C120.195 11.5333 120.348 12.1467 120.348 12.88C120.348 13.9867 119.815 14.86 118.748 15.5C119.628 15.8333 120.228 16.2867 120.548 16.86C120.868 17.4333 121.028 18.08 121.028 18.8C121.028 20.2533 120.495 21.3467 119.428 22.08C118.375 22.8133 116.802 23.18 114.708 23.18ZM113.128 16.96V20.54C113.355 20.5667 113.602 20.5867 113.868 20.6C114.135 20.6133 114.428 20.62 114.748 20.62C115.682 20.62 116.435 20.4867 117.008 20.22C117.582 19.9533 117.868 19.46 117.868 18.74C117.868 18.1 117.628 17.6467 117.148 17.38C116.668 17.1 115.982 16.96 115.088 16.96H113.128ZM113.128 14.58H114.648C115.608 14.58 116.295 14.46 116.708 14.22C117.122 13.9667 117.328 13.5667 117.328 13.02C117.328 12.46 117.115 12.0667 116.688 11.84C116.262 11.6133 115.635 11.5 114.808 11.5C114.542 11.5 114.255 11.5067 113.948 11.52C113.642 11.52 113.368 11.5333 113.128 11.56V14.58ZM132.61 23C132.464 22.52 132.297 22.0267 132.11 21.52C131.937 21.0133 131.764 20.5067 131.59 20H126.19C126.017 20.5067 125.837 21.0133 125.65 21.52C125.477 22.0267 125.317 22.52 125.17 23H121.93C122.45 21.5067 122.944 20.1267 123.41 18.86C123.877 17.5933 124.33 16.4 124.77 15.28C125.224 14.16 125.664 13.1 126.09 12.1C126.53 11.0867 126.984 10.1 127.45 9.14H130.43C130.884 10.1 131.33 11.0867 131.77 12.1C132.21 13.1 132.65 14.16 133.09 15.28C133.544 16.4 134.004 17.5933 134.47 18.86C134.937 20.1267 135.43 21.5067 135.95 23H132.61ZM128.87 12.28C128.804 12.48 128.704 12.7533 128.57 13.1C128.437 13.4467 128.284 13.8467 128.11 14.3C127.937 14.7533 127.744 15.2533 127.53 15.8C127.33 16.3467 127.124 16.92 126.91 17.52H130.85C130.637 16.92 130.43 16.3467 130.23 15.8C130.03 15.2533 129.837 14.7533 129.65 14.3C129.477 13.8467 129.324 13.4467 129.19 13.1C129.057 12.7533 128.95 12.48 128.87 12.28ZM143.985 11.68C143.585 11.68 143.198 11.7133 142.825 11.78C142.465 11.8333 142.145 11.9333 141.865 12.08C141.585 12.2133 141.358 12.4067 141.185 12.66C141.011 12.9 140.925 13.2067 140.925 13.58C140.925 14.2867 141.171 14.7733 141.665 15.04C142.171 15.3067 142.918 15.44 143.905 15.44H145.205V11.7C145.045 11.6867 144.871 11.68 144.685 11.68C144.498 11.68 144.265 11.68 143.985 11.68ZM144.125 9C144.685 9 145.338 9.03333 146.085 9.1C146.845 9.16667 147.591 9.28 148.325 9.44V23H145.205V18.02H144.245C144.071 18.02 143.905 18.02 143.745 18.02C143.585 18.02 143.391 18.0067 143.165 17.98C142.725 18.58 142.238 19.3333 141.705 20.24C141.185 21.1333 140.698 22.0533 140.245 23H136.945C137.185 22.4533 137.438 21.9133 137.705 21.38C137.985 20.8467 138.265 20.34 138.545 19.86C138.825 19.38 139.098 18.94 139.365 18.54C139.631 18.1267 139.878 17.7667 140.105 17.46C139.811 17.3267 139.518 17.1533 139.225 16.94C138.945 16.7133 138.691 16.4467 138.465 16.14C138.238 15.8333 138.051 15.4733 137.905 15.06C137.771 14.6333 137.705 14.1467 137.705 13.6C137.705 12.84 137.851 12.1733 138.145 11.6C138.451 11.0267 138.878 10.5467 139.425 10.16C139.985 9.77333 140.658 9.48667 141.445 9.3C142.245 9.1 143.138 9 144.125 9Z" fill="white"/>
<path d="M48.2104 46.6295V48.2101H0.791016V46.6295C0.791016 45.76 1.50223 45.0488 2.37166 45.0488H46.6297C47.4992 45.0488 48.2104 45.76 48.2104 46.6295Z" fill="#CF9E76"/>
<path d="M2.37109 21.3389H46.6292V45.0485H2.37109V21.3389Z" fill="#E6E9ED"/>
<path d="M13.4355 27.6611H21.3388V45.0482H13.4355V27.6611Z" fill="#FCD770"/>
<path d="M5.53125 27.6611H13.4345V45.0482H5.53125V27.6611Z" fill="#FCD770"/>
<path d="M43.4671 32.4035V38.7261H37.1445V32.4035C37.1445 30.6569 38.5592 29.2422 40.3058 29.2422C42.0524 29.2422 43.4671 30.6569 43.4671 32.4035Z" fill="#B27946"/>
<path d="M33.9847 32.4035V38.7261H27.6621V32.4035C27.6621 30.6569 29.0768 29.2422 30.8234 29.2422C32.57 29.2422 33.9847 30.6569 33.9847 32.4035Z" fill="#B27946"/>
<path d="M37.9355 16.5962V7.1123H45.0485C46.795 7.1123 48.2098 8.52701 48.2098 10.2736V16.5962H37.9355Z" fill="#FCD770"/>
<path d="M11.0652 7.1123V16.5962H0.791016V10.2736C0.791016 8.52701 2.20572 7.1123 3.95231 7.1123H11.0652Z" fill="#FCD770"/>
<path d="M11.0652 18.1773H37.9362V16.5967H48.2104V21.3386H0.791016V16.5967H11.0652V18.1773Z" fill="#EF7385"/>
<path d="M37.9351 16.5965V18.1771C37.9351 18.1771 31.7549 12.4079 28.6172 9.48359L37.9351 0.790039V16.5965Z" fill="#AAB2BD"/>
<path d="M20.3824 9.48359L11.0645 18.1771V0.790039L20.3824 9.48359Z" fill="#AAB2BD"/>
<path d="M37.9354 18.1779H11.0645L20.3824 9.48438L21.7655 10.7806C22.5083 11.4679 23.4804 11.8553 24.4999 11.8553C25.5195 11.8553 26.4916 11.4679 27.2344 10.7806L28.6175 9.48438C31.7552 12.4087 37.9354 18.1779 37.9354 18.1779Z" fill="#E6E9ED"/>
<path d="M37.9354 0.790039L28.6175 9.48359L27.2344 10.7798C26.4916 11.4671 25.5195 11.8546 24.4999 11.8546C23.4804 11.8546 22.5083 11.4671 21.7655 10.7798L20.3824 9.48359L11.0645 0.790039H37.9354Z" fill="#E6E9ED"/>
<path d="M49 22.129V10.2742C49 8.0954 47.2272 6.32258 45.0484 6.32258H38.7258V0H10.2742V6.32258H3.95161C1.77282 6.32258 0 8.0954 0 10.2742V22.129H1.58065V44.4035C0.662976 44.7308 0 45.6002 0 46.629V49H49V46.629C49 45.6002 48.337 44.7308 47.4194 44.4035V22.129H49ZM1.58065 20.5484V17.3871H10.2742V18.9677H38.7258V17.3871H47.4194V20.5484H1.58065ZM21.2241 11.3539C22.1163 12.1867 23.2798 12.6452 24.5 12.6452C25.7202 12.6452 26.8837 12.1867 27.7751 11.3539L28.6206 10.5644L35.9304 17.3871H13.0697L20.3794 10.5652L21.2241 11.3539ZM37.1452 16.3591L29.7795 9.48387L37.1452 2.60868V16.3591ZM26.6962 10.1982C25.4999 11.315 23.5001 11.315 22.3031 10.1982L13.0697 1.58065H35.9304L26.6962 10.1982ZM19.2205 9.48387L11.8548 16.3591V2.60868L19.2205 9.48387ZM45.0484 7.90323C46.3554 7.90323 47.4194 8.96715 47.4194 10.2742V15.8065H38.7258V7.90323H45.0484ZM3.95161 7.90323H10.2742V15.8065H1.58065V10.2742C1.58065 8.96715 2.64457 7.90323 3.95161 7.90323ZM47.4194 47.4194H1.58065V46.629C1.58065 46.1937 1.93567 45.8387 2.37097 45.8387H46.629C47.0643 45.8387 47.4194 46.1937 47.4194 46.629V47.4194ZM20.5484 44.2581H14.2258V28.4516H20.5484V44.2581ZM12.6452 44.2581H6.32258V28.4516H12.6452V44.2581ZM45.8387 44.2581H22.129V26.871H4.74194V44.2581H3.16129V22.129H45.8387V44.2581Z" fill="black"/>
<path d="M9.48438 35.5645H11.065V37.1451H9.48438V35.5645Z" fill="black"/>
<path d="M15.8066 35.5645H17.3873V37.1451H15.8066V35.5645Z" fill="black"/>
<path d="M44.2587 32.4028C44.2587 30.224 42.4859 28.4512 40.3071 28.4512C38.1283 28.4512 36.3555 30.224 36.3555 32.4028V39.5157H44.2587V32.4028ZM42.678 37.935H37.9361V32.4028C37.9361 31.0957 39 30.0318 40.3071 30.0318C41.6141 30.0318 42.678 31.0957 42.678 32.4028V37.935Z" fill="black"/>
<path d="M34.7743 32.4028C34.7743 30.224 33.0015 28.4512 30.8227 28.4512C28.6439 28.4512 26.8711 30.224 26.8711 32.4028V39.5157H34.7743V32.4028ZM33.1937 37.935H28.4517V32.4028C28.4517 31.0957 29.5157 30.0318 30.8227 30.0318C32.1297 30.0318 33.1937 31.0957 33.1937 32.4028V37.935Z" fill="black"/>
<path d="M40.3066 9.48438H41.8873V11.065H40.3066V9.48438Z" fill="black"/>
<path d="M43.4688 9.48438H45.0494V11.065H43.4688V9.48438Z" fill="black"/>
<path d="M3.95312 9.48438H5.53377V11.065H3.95312V9.48438Z" fill="black"/>
<path d="M7.11328 9.48438H8.69393V11.065H7.11328V9.48438Z" fill="black"/>
</svg>
